<?xml version="1.0" encoding="UTF-8"?>
<svg version="1.1" xmlns="http://www.w3.org/2000/svg" width="1000" height="1000">
<path d="M0 0 C1.87824463 -0.01052147 1.87824463 -0.01052147 3.79443359 -0.02125549 C7.81351653 -0.03866658 11.83244995 -0.04568939 15.8515625 -0.046875 C16.53603706 -0.04731686 17.22051163 -0.04775871 17.92572784 -0.04821396 C38.26281397 -0.05510132 58.31153058 0.23128349 78.4765625 3.203125 C79.71712402 3.37473145 80.95768555 3.54633789 82.23583984 3.72314453 C143.20912845 12.24645621 202.60191161 32.53775495 255.4765625 64.203125 C256.38229004 64.74324219 257.28801758 65.28335938 258.22119141 65.83984375 C284.30943756 81.47700571 308.63094043 99.58139598 331.1171875 120.0625 C332.61442416 121.42092002 334.12360658 122.7663792 335.6484375 124.09375 C341.7236175 129.41476972 347.44576749 135.06537913 353.1640625 140.765625 C353.97222412 141.56919434 354.78038574 142.37276367 355.61303711 143.20068359 C360.44068448 148.04073626 365.03452396 153.00873377 369.4765625 158.203125 C370.42594453 159.28615558 371.37641294 160.36823511 372.328125 161.44921875 C380.1291222 170.39247004 387.39446536 179.68327335 394.4765625 189.203125 C395.01958008 189.93047852 395.56259766 190.65783203 396.12207031 191.40722656 C409.33186207 209.16941238 420.72360755 227.87023225 431.4765625 247.203125 C431.87439941 247.91082031 432.27223633 248.61851562 432.68212891 249.34765625 C460.28453014 298.64193154 476.76164439 355.1269204 483.7265625 411.015625 C483.85118866 412.01456787 483.85118866 412.01456787 483.97833252 413.03369141 C485.60934054 426.26539256 486.62951987 439.38708664 486.6796875 452.7265625 C486.68670181 453.9787709 486.69371613 455.23097931 486.70094299 456.52113342 C486.71835341 460.54017058 486.72537678 464.55905823 486.7265625 468.578125 C486.72700436 469.26245228 486.72744621 469.94677956 486.72790146 470.65184402 C486.73478758 490.97979018 486.50282601 511.05242456 483.4765625 531.203125 C483.29963867 532.42725098 483.12271484 533.65137695 482.94042969 534.91259766 C476.27351619 580.20500565 463.82842618 623.86252534 444.71679688 665.49658203 C443.61502067 667.90097001 442.53426848 670.31329689 441.4609375 672.73046875 C435.9438887 684.99313472 429.25738949 696.60358265 422.4765625 708.203125 C422.0031543 709.01458984 421.52974609 709.82605469 421.04199219 710.66210938 C405.61938174 736.92613669 387.11278637 761.34158901 366.6171875 783.84375 C365.25876748 785.34098666 363.9133083 786.85016908 362.5859375 788.375 C357.26491778 794.45018 351.61430837 800.17232999 345.9140625 805.890625 C345.11049316 806.69878662 344.30692383 807.50694824 343.47900391 808.33959961 C338.63895124 813.16724698 333.67095373 817.76108646 328.4765625 822.203125 C327.39353192 823.15250703 326.31145239 824.10297544 325.23046875 825.0546875 C316.28721746 832.8556847 306.99641415 840.12102786 297.4765625 847.203125 C296.74920898 847.74614258 296.02185547 848.28916016 295.27246094 848.84863281 C277.51597112 862.05418843 258.82368343 873.486483 239.4765625 884.203125 C238.3019043 884.85643799 238.3019043 884.85643799 237.10351562 885.52294922 C188.24695438 912.51443516 133.57181521 928.5818178 78.4765625 936.203125 C77.35588379 936.36828613 76.23520508 936.53344727 75.08056641 936.70361328 C36.57759543 942.20728999 -6.07546047 941.97730194 -44.5234375 936.203125 C-45.74756348 936.02620117 -46.97168945 935.84927734 -48.23291016 935.66699219 C-93.52531815 929.00007869 -137.18283784 916.55498868 -178.81689453 897.44335938 C-181.22128251 896.34158317 -183.63360939 895.26083098 -186.05078125 894.1875 C-226.66133719 875.91966044 -264.32210194 849.25712809 -297.1640625 819.34375 C-298.66129916 817.98532998 -300.17048158 816.6398708 -301.6953125 815.3125 C-307.7704925 809.99148028 -313.49264249 804.34087087 -319.2109375 798.640625 C-320.01909912 797.83705566 -320.82726074 797.03348633 -321.65991211 796.20556641 C-326.48755948 791.36551374 -331.08139896 786.39751623 -335.5234375 781.203125 C-336.47281953 780.12009442 -337.42328794 779.03801489 -338.375 777.95703125 C-346.1759972 769.01377996 -353.44134036 759.72297665 -360.5234375 750.203125 C-361.06645508 749.47577148 -361.60947266 748.74841797 -362.16894531 747.99902344 C-375.37873707 730.23683762 -386.77048255 711.53601775 -397.5234375 692.203125 C-397.92127441 691.49542969 -398.31911133 690.78773438 -398.72900391 690.05859375 C-426.33140514 640.76431846 -442.80851939 584.2793296 -449.7734375 528.390625 C-449.85652161 527.72466309 -449.93960571 527.05870117 -450.02520752 526.37255859 C-451.65621554 513.14085744 -452.67639487 500.01916336 -452.7265625 486.6796875 C-452.73708397 484.80137489 -452.73708397 484.80137489 -452.74781799 482.88511658 C-452.76522841 478.86607942 -452.77225178 474.84719177 -452.7734375 470.828125 C-452.77387936 470.14379772 -452.77432121 469.45947044 -452.77477646 468.75440598 C-452.78166258 448.42645982 -452.54970101 428.35382544 -449.5234375 408.203125 C-449.34651367 406.97899902 -449.16958984 405.75487305 -448.98730469 404.49365234 C-442.32010173 359.19927782 -429.80126287 315.61497556 -410.77978516 273.95800781 C-409.67371442 271.53264788 -408.58585822 269.10023847 -407.50390625 266.6640625 C-389.22687408 226.05905115 -362.57706606 188.40404936 -332.6640625 155.5625 C-331.30564248 154.06526334 -329.9601833 152.55608092 -328.6328125 151.03125 C-323.31179278 144.95607 -317.66118337 139.23392001 -311.9609375 133.515625 C-311.15736816 132.70746338 -310.35379883 131.89930176 -309.52587891 131.06665039 C-304.6851905 126.23836891 -299.70841929 121.65660432 -294.5234375 117.203125 C-293.40158301 116.20543974 -292.28172543 115.20550365 -291.1640625 114.203125 C-281.07664268 105.23900274 -270.42466298 97.14778943 -259.5234375 89.203125 C-258.42878174 88.40044189 -258.42878174 88.40044189 -257.31201172 87.58154297 C-240.85020469 75.54926416 -223.47696747 64.98610166 -205.54345703 55.30126953 C-203.69190775 54.29471059 -201.85426353 53.2672631 -200.01953125 52.23046875 C-151.77427683 25.50073166 -96.25190112 9.750086 -41.7109375 2.953125 C-41.04497559 2.87004089 -40.37901367 2.78695679 -39.69287109 2.70135498 C-26.46116989 1.07034695 -13.33947592 0.05016785 0 0 Z " fill="#1A202C" transform="translate(481.5234375,29.796875)"/>
<path d="M0 0 C4.97466671 1.6496747 9.06519724 4.70411415 13.2734375 7.75390625 C15.08500221 9.02607248 16.89745821 10.29697075 18.7109375 11.56640625 C19.49339844 12.12972656 20.27585937 12.69304687 21.08203125 13.2734375 C23.09131298 14.63086669 25.07943021 15.72936981 27.2734375 16.75390625 C27.2734375 17.41390625 27.2734375 18.07390625 27.2734375 18.75390625 C27.99869629 19.0286377 28.72395508 19.30336914 29.47119141 19.58642578 C32.15913584 20.70628554 34.58919502 21.97950863 37.109375 23.43359375 C38.00914062 23.95050781 38.90890625 24.46742188 39.8359375 25 C41.228125 25.80630859 41.228125 25.80630859 42.6484375 26.62890625 C43.56882812 27.15871094 44.48921875 27.68851562 45.4375 28.234375 C48.75659377 30.1452247 52.0743283 32.05837306 55.38720703 33.97998047 C58.57072912 35.81769143 61.7263755 37.4419643 65.12890625 38.83984375 C68.02344252 40.07358052 70.86147036 41.4195537 73.7109375 42.75390625 C77.28159668 44.41069211 80.82491012 46.02994436 84.5234375 47.37890625 C87.19853209 48.35977427 89.6973232 49.38003782 92.2734375 50.56640625 C99.12643169 53.65977168 106.21045749 56.18713009 113.2734375 58.75390625 C114.09972656 59.05425781 114.92601562 59.35460937 115.77734375 59.6640625 C125.25834678 62.95632731 135.14406404 65.53522782 145.02734375 67.26171875 C147.2734375 67.75390625 147.2734375 67.75390625 150.0480957 68.72216797 C153.10396917 69.69969588 155.95591513 70.28772663 159.125 70.75390625 C160.22457031 70.91890625 161.32414062 71.08390625 162.45703125 71.25390625 C163.59269531 71.41890625 164.72835938 71.58390625 165.8984375 71.75390625 C170.35757674 72.41528496 174.81587871 73.08195863 179.2734375 73.75390625 C180.38992676 73.91890625 181.50641602 74.08390625 182.65673828 74.25390625 C183.72134277 74.41890625 184.78594727 74.58390625 185.8828125 74.75390625 C186.83381836 74.89828125 187.78482422 75.04265625 188.76464844 75.19140625 C193.28371567 76.20463425 196.02473473 78.50520348 199.2734375 81.75390625 C199.45048978 84.72781649 199.50292145 87.59779915 199.45703125 90.5703125 C199.44965439 91.46126114 199.44227753 92.35220978 199.43467712 93.27015686 C199.32945352 102.21122824 198.94326718 111.13725477 198.47387695 120.06567383 C198.33471037 122.71476514 198.2029051 125.36414756 198.07226562 128.01367188 C197.60778875 137.273191 197.05713588 146.51512543 196.2734375 155.75390625 C195.6134375 155.75390625 194.9534375 155.75390625 194.2734375 155.75390625 C194.29664063 156.388125 194.31984375 157.02234375 194.34375 157.67578125 C194.60400958 171.13491965 193.20233729 184.55062206 190.11328125 197.64453125 C189.13791525 202.0882482 188.56188166 206.58099833 187.94091797 211.08544922 C186.49427515 221.57692092 184.75593178 231.89136301 182.2734375 242.19140625 C181.9180188 243.67120972 181.9180188 243.67120972 181.55541992 245.1809082 C180.04272924 251.23937039 178.18536791 257.12092507 176.16992188 263.02954102 C175.08223315 266.33496545 174.26248136 269.60430447 173.5234375 273.00390625 C173.28109375 274.1021875 173.03875 275.20046875 172.7890625 276.33203125 C172.61890625 277.13125 172.44875 277.93046875 172.2734375 278.75390625 C171.6134375 278.75390625 170.9534375 278.75390625 170.2734375 278.75390625 C169.9640625 280.51734375 169.9640625 280.51734375 169.6484375 282.31640625 C168.4886565 287.63277464 166.4827728 292.51909496 164.39404297 297.52368164 C163.12555231 300.56956649 161.93452203 303.5137759 161.2734375 306.75390625 C160.6134375 306.75390625 159.9534375 306.75390625 159.2734375 306.75390625 C159.12648438 307.3365625 158.97953125 307.91921875 158.828125 308.51953125 C151.41959428 335.59898835 131.69292368 361.05997744 113.2734375 381.75390625 C112.00152873 383.21130172 110.7305048 384.66947063 109.4609375 386.12890625 C108.92726563 386.73347656 108.39359375 387.33804687 107.84375 387.9609375 C106.74259295 389.21822876 105.6551438 390.48759578 104.578125 391.765625 C101.05743032 395.90994049 97.37884212 399.53305205 93.23046875 403.046875 C91.37362825 404.66651432 89.66946258 406.35513916 87.9609375 408.12890625 C83.39873103 412.7420302 78.3515426 416.72932059 73.2734375 420.75390625 C72.60844238 421.28467773 71.94344727 421.81544922 71.25830078 422.36230469 C61.23673906 430.34615638 51.07544568 437.86437439 40.2734375 444.75390625 C39.54012207 445.22538086 38.80680664 445.69685547 38.05126953 446.18261719 C28.6321051 452.23371676 19.12790168 458.10884022 9.43994141 463.72070312 C6.16703985 465.47712688 6.16703985 465.47712688 3.2734375 467.75390625 C-3.37798277 468.353265 -7.19708252 467.01449387 -12.8515625 463.62890625 C-13.61146484 463.19022217 -14.37136719 462.75153809 -15.15429688 462.29956055 C-28.71591684 454.37267894 -41.90182395 445.81838966 -54.7265625 436.75390625 C-55.90793169 435.93616571 -57.09011592 435.11960025 -58.2734375 434.3046875 C-66.89145258 428.28258672 -74.85286975 421.71330059 -82.7265625 414.75390625 C-84.24705433 413.42018349 -85.76782224 412.08677529 -87.2890625 410.75390625 C-87.89492188 410.22023438 -88.50078125 409.6865625 -89.125 409.13671875 C-90.52296273 407.92969727 -91.96529115 406.77444639 -93.4140625 405.62890625 C-100.00583927 400.28422238 -105.54508572 393.58837616 -111.26464844 387.33935547 C-112.5017204 385.99774803 -113.75675192 384.67273476 -115.015625 383.3515625 C-128.37191226 369.11986315 -138.78757737 352.45912622 -148.7265625 335.75390625 C-149.14196289 335.06361328 -149.55736328 334.37332031 -149.98535156 333.66210938 C-154.62143466 325.94183575 -158.41842306 318.13135289 -161.7265625 309.75390625 C-162.42521422 308.14549941 -163.13284895 306.5409492 -163.8515625 304.94140625 C-164.17253906 304.22339844 -164.49351562 303.50539063 -164.82421875 302.765625 C-165.12199219 302.10175781 -165.41976562 301.43789063 -165.7265625 300.75390625 C-168.90879451 293.62570655 -171.72874832 286.53685688 -172.7265625 278.75390625 C-173.3865625 278.75390625 -174.0465625 278.75390625 -174.7265625 278.75390625 C-174.89260986 278.07400635 -175.05865723 277.39410645 -175.22973633 276.69360352 C-175.99566738 273.56691514 -176.76732573 270.44166649 -177.5390625 267.31640625 C-177.93061523 265.71249023 -177.93061523 265.71249023 -178.33007812 264.07617188 C-179.50675208 259.32589556 -180.70951707 254.64401892 -182.328125 250.0234375 C-183.82545867 245.6993893 -184.60768691 241.39453144 -185.2890625 236.87890625 C-186.12239582 231.02524467 -186.12239582 231.02524467 -188.7265625 225.75390625 C-189.27319336 223.22045898 -189.27319336 223.22045898 -189.69140625 220.1875 C-189.85189453 219.06021484 -190.01238281 217.93292969 -190.17773438 216.77148438 C-190.33822266 215.59005859 -190.49871094 214.40863281 -190.6640625 213.19140625 C-190.9837734 210.89817129 -191.30542715 208.60520646 -191.62890625 206.3125 C-191.7983374 205.10102295 -191.96776855 203.8895459 -192.14233398 202.64135742 C-192.54887811 199.93621654 -192.98357258 197.254159 -193.46899414 194.5637207 C-195.53092345 183.08526801 -196.56404246 171.70012302 -197.2890625 160.06640625 C-197.51322457 156.56205971 -197.7433661 153.0581825 -197.98046875 149.5546875 C-198.03736877 148.71135361 -198.0942688 147.86801971 -198.15289307 146.99913025 C-198.60638424 140.64221401 -199.39192049 134.38631263 -200.29174805 128.07641602 C-200.92401777 123.24510854 -201.18549856 118.433222 -201.3515625 113.56640625 C-201.38588379 112.6017041 -201.42020508 111.63700195 -201.45556641 110.64306641 C-201.52136121 108.66047125 -201.58243824 106.6777136 -201.63867188 104.69482422 C-201.6969259 102.74557982 -201.7658126 100.79662208 -201.84570312 98.84814453 C-201.95685285 96.10849223 -202.03392043 93.36993601 -202.1015625 90.62890625 C-202.13975098 89.80624268 -202.17793945 88.9835791 -202.21728516 88.13598633 C-202.27439318 84.07321954 -202.07028683 82.25157662 -199.703125 78.82421875 C-194.23937772 75.02397458 -187.48722915 74.47587435 -181 73.60546875 C-179.54031949 73.40266807 -178.08068552 73.19953212 -176.62109375 72.99609375 C-174.3711281 72.68726538 -172.12086376 72.38147356 -169.86962891 72.08203125 C-159.81431133 70.73571258 -150.44051738 68.74340418 -140.7265625 65.75390625 C-129.58788762 62.75390625 -129.58788762 62.75390625 -124.7265625 62.75390625 C-124.7265625 62.09390625 -124.7265625 61.43390625 -124.7265625 60.75390625 C-123.83195312 60.5115625 -122.93734375 60.26921875 -122.015625 60.01953125 C-115.46039743 58.20251721 -109.13739516 56.21205366 -102.859375 53.5703125 C-100.18804939 52.54777211 -97.56602831 52.05279739 -94.7265625 51.75390625 C-94.7265625 51.09390625 -94.7265625 50.43390625 -94.7265625 49.75390625 C-93.83195312 49.45097656 -92.93734375 49.14804687 -92.015625 48.8359375 C-85.40597116 46.54581224 -79.10208562 44.16168025 -72.91015625 40.8671875 C-70.7265625 39.75390625 -70.7265625 39.75390625 -68.265625 38.8046875 C-64.61253393 37.29286981 -61.44466719 35.13166859 -58.12890625 32.99609375 C-55.7265625 31.75390625 -55.7265625 31.75390625 -51.7265625 31.75390625 C-51.7265625 31.09390625 -51.7265625 30.43390625 -51.7265625 29.75390625 C-50.60121094 29.14804687 -49.47585938 28.5421875 -48.31640625 27.91796875 C-36.91950778 21.72248186 -25.53872372 15.33808672 -15.4453125 7.125 C-5.7972263 -0.65925137 -5.7972263 -0.65925137 0 0 Z " fill="#CFCCE0" transform="translate(501.7265625,271.24609375)"/>
<path d="M0 0 C1.87824463 -0.01052147 1.87824463 -0.01052147 3.79443359 -0.02125549 C7.81351653 -0.03866658 11.83244995 -0.04568939 15.8515625 -0.046875 C16.53603706 -0.04731686 17.22051163 -0.04775871 17.92572784 -0.04821396 C38.26281397 -0.05510132 58.31153058 0.23128349 78.4765625 3.203125 C79.71712402 3.37473145 80.95768555 3.54633789 82.23583984 3.72314453 C143.20912845 12.24645621 202.60191161 32.53775495 255.4765625 64.203125 C256.38229004 64.74324219 257.28801758 65.28335938 258.22119141 65.83984375 C284.30943756 81.47700571 308.63094043 99.58139598 331.1171875 120.0625 C332.61442416 121.42092002 334.12360658 122.7663792 335.6484375 124.09375 C341.7236175 129.41476972 347.44576749 135.06537913 353.1640625 140.765625 C353.97222412 141.56919434 354.78038574 142.37276367 355.61303711 143.20068359 C360.44068448 148.04073626 365.03452396 153.00873377 369.4765625 158.203125 C370.42594453 159.28615558 371.37641294 160.36823511 372.328125 161.44921875 C380.1291222 170.39247004 387.39446536 179.68327335 394.4765625 189.203125 C395.01958008 189.93047852 395.56259766 190.65783203 396.12207031 191.40722656 C409.33186207 209.16941238 420.72360755 227.87023225 431.4765625 247.203125 C431.87439941 247.91082031 432.27223633 248.61851562 432.68212891 249.34765625 C460.28453014 298.64193154 476.76164439 355.1269204 483.7265625 411.015625 C483.85118866 412.01456787 483.85118866 412.01456787 483.97833252 413.03369141 C485.60934054 426.26539256 486.62951987 439.38708664 486.6796875 452.7265625 C486.68670181 453.9787709 486.69371613 455.23097931 486.70094299 456.52113342 C486.71835341 460.54017058 486.72537678 464.55905823 486.7265625 468.578125 C486.72700436 469.26245228 486.72744621 469.94677956 486.72790146 470.65184402 C486.73478758 490.97979018 486.50282601 511.05242456 483.4765625 531.203125 C483.29963867 532.42725098 483.12271484 533.65137695 482.94042969 534.91259766 C476.27351619 580.20500565 463.82842618 623.86252534 444.71679688 665.49658203 C443.61502067 667.90097001 442.53426848 670.31329689 441.4609375 672.73046875 C435.9438887 684.99313472 429.25738949 696.60358265 422.4765625 708.203125 C422.0031543 709.01458984 421.52974609 709.82605469 421.04199219 710.66210938 C405.61938174 736.92613669 387.11278637 761.34158901 366.6171875 783.84375 C365.25876748 785.34098666 363.9133083 786.85016908 362.5859375 788.375 C357.26491778 794.45018 351.61430837 800.17232999 345.9140625 805.890625 C345.11049316 806.69878662 344.30692383 807.50694824 343.47900391 808.33959961 C338.63895124 813.16724698 333.67095373 817.76108646 328.4765625 822.203125 C327.39353192 823.15250703 326.31145239 824.10297544 325.23046875 825.0546875 C316.28721746 832.8556847 306.99641415 840.12102786 297.4765625 847.203125 C296.74920898 847.74614258 296.02185547 848.28916016 295.27246094 848.84863281 C277.51597112 862.05418843 258.82368343 873.486483 239.4765625 884.203125 C238.3019043 884.85643799 238.3019043 884.85643799 237.10351562 885.52294922 C188.24695438 912.51443516 133.57181521 928.5818178 78.4765625 936.203125 C77.35588379 936.36828613 76.23520508 936.53344727 75.08056641 936.70361328 C36.57759543 942.20728999 -6.07546047 941.97730194 -44.5234375 936.203125 C-45.74756348 936.02620117 -46.97168945 935.84927734 -48.23291016 935.66699219 C-93.52531815 929.00007869 -137.18283784 916.55498868 -178.81689453 897.44335938 C-181.22128251 896.34158317 -183.63360939 895.26083098 -186.05078125 894.1875 C-226.66133719 875.91966044 -264.32210194 849.25712809 -297.1640625 819.34375 C-298.66129916 817.98532998 -300.17048158 816.6398708 -301.6953125 815.3125 C-307.7704925 809.99148028 -313.49264249 804.34087087 -319.2109375 798.640625 C-320.01909912 797.83705566 -320.82726074 797.03348633 -321.65991211 796.20556641 C-326.48755948 791.36551374 -331.08139896 786.39751623 -335.5234375 781.203125 C-336.47281953 780.12009442 -337.42328794 779.03801489 -338.375 777.95703125 C-346.1759972 769.01377996 -353.44134036 759.72297665 -360.5234375 750.203125 C-361.06645508 749.47577148 -361.60947266 748.74841797 -362.16894531 747.99902344 C-375.37873707 730.23683762 -386.77048255 711.53601775 -397.5234375 692.203125 C-397.92127441 691.49542969 -398.31911133 690.78773438 -398.72900391 690.05859375 C-426.33140514 640.76431846 -442.80851939 584.2793296 -449.7734375 528.390625 C-449.85652161 527.72466309 -449.93960571 527.05870117 -450.02520752 526.37255859 C-451.65621554 513.14085744 -452.67639487 500.01916336 -452.7265625 486.6796875 C-452.73708397 484.80137489 -452.73708397 484.80137489 -452.74781799 482.88511658 C-452.76522841 478.86607942 -452.77225178 474.84719177 -452.7734375 470.828125 C-452.77387936 470.14379772 -452.77432121 469.45947044 -452.77477646 468.75440598 C-452.78166258 448.42645982 -452.54970101 428.35382544 -449.5234375 408.203125 C-449.34651367 406.97899902 -449.16958984 405.75487305 -448.98730469 404.49365234 C-442.32010173 359.19927782 -429.80126287 315.61497556 -410.77978516 273.95800781 C-409.67371442 271.53264788 -408.58585822 269.10023847 -407.50390625 266.6640625 C-389.22687408 226.05905115 -362.57706606 188.40404936 -332.6640625 155.5625 C-331.30564248 154.06526334 -329.9601833 152.55608092 -328.6328125 151.03125 C-323.31179278 144.95607 -317.66118337 139.23392001 -311.9609375 133.515625 C-311.15736816 132.70746338 -310.35379883 131.89930176 -309.52587891 131.06665039 C-304.6851905 126.23836891 -299.70841929 121.65660432 -294.5234375 117.203125 C-293.40158301 116.20543974 -292.28172543 115.20550365 -291.1640625 114.203125 C-281.07664268 105.23900274 -270.42466298 97.14778943 -259.5234375 89.203125 C-258.42878174 88.40044189 -258.42878174 88.40044189 -257.31201172 87.58154297 C-240.85020469 75.54926416 -223.47696747 64.98610166 -205.54345703 55.30126953 C-203.69190775 54.29471059 -201.85426353 53.2672631 -200.01953125 52.23046875 C-151.77427683 25.50073166 -96.25190112 9.750086 -41.7109375 2.953125 C-41.04497559 2.87004089 -40.37901367 2.78695679 -39.69287109 2.70135498 C-26.46116989 1.07034695 -13.33947592 0.05016785 0 0 Z M-32.5234375 40.203125 C-33.6160791 40.32671387 -34.7087207 40.45030273 -35.83447266 40.57763672 C-82.7927647 45.95006647 -127.97705648 59.74349843 -170.5234375 80.203125 C-171.37421875 80.60466797 -172.225 81.00621094 -173.1015625 81.41992188 C-206.31707656 97.11373001 -236.82543986 118.16188548 -264.5234375 142.203125 C-265.235 142.81414062 -265.9465625 143.42515625 -266.6796875 144.0546875 C-268.64395597 145.75329671 -270.58700282 147.47285066 -272.5234375 149.203125 C-273.36648438 149.95335937 -274.20953125 150.70359375 -275.078125 151.4765625 C-281.32963376 157.11816797 -287.3708413 162.94690907 -293.3359375 168.890625 C-294.39349243 169.9412915 -294.39349243 169.9412915 -295.47241211 171.01318359 C-300.02633552 175.58053091 -304.32679249 180.30714727 -308.5234375 185.203125 C-309.3690625 186.16734375 -310.2146875 187.1315625 -311.0859375 188.125 C-335.7145118 216.70046121 -355.5483263 248.61590787 -372.5234375 282.203125 C-372.89710449 282.93966309 -373.27077148 283.67620117 -373.65576172 284.43505859 C-392.11641076 321.1707781 -404.63122595 362.20854188 -410.0703125 402.97021484 C-410.53780351 406.30562215 -411.09009036 409.62008959 -411.6484375 412.94140625 C-414.51218727 431.27601624 -414.92804085 449.5369413 -414.95689392 468.07078552 C-414.96086152 470.04040535 -414.97006472 472.01001241 -414.97937012 473.97961426 C-415.03477133 491.91761205 -413.93622632 509.42852521 -411.5234375 527.203125 C-411.41657623 528.00574768 -411.30971497 528.80837036 -411.19961548 529.63531494 C-410.6051476 534.04499958 -409.934173 538.43786189 -409.2109375 542.828125 C-408.89564087 544.75350098 -408.89564087 544.75350098 -408.57397461 546.71777344 C-405.40890601 565.61976793 -400.73211818 584.07932855 -394.5234375 602.203125 C-394.17297363 603.23775879 -393.82250977 604.27239258 -393.46142578 605.33837891 C-387.66231269 622.36237417 -381.13201565 638.90665802 -373.5234375 655.203125 C-373.12721191 656.05745117 -372.73098633 656.91177734 -372.32275391 657.79199219 C-355.38178875 693.96614612 -332.16402021 728.08209019 -305.078125 757.40234375 C-303.11526819 759.5542831 -301.20690388 761.72991308 -299.30859375 763.9375 C-295.10661604 768.75377871 -290.61468893 773.25845619 -286.0859375 777.765625 C-285.27833984 778.57708984 -284.47074219 779.38855469 -283.63867188 780.22460938 C-278.76243697 785.09298572 -273.75634409 789.72286328 -268.5234375 794.203125 C-267.47514819 795.12860881 -266.42819558 796.05560969 -265.3828125 796.984375 C-204.54098995 850.46267681 -126.77912477 886.30976718 -46.5234375 897.203125 C-44.49214835 897.49191226 -42.46089841 897.78097548 -40.4296875 898.0703125 C-38.4403714 898.34568742 -36.45079608 898.61919774 -34.4609375 898.890625 C-33.5939624 899.01026611 -32.7269873 899.12990723 -31.83374023 899.25317383 C-16.66555947 901.22071416 -1.48885084 901.38957518 13.7824707 901.38842773 C17.00941354 901.390605 20.23600824 901.40880622 23.46289062 901.42773438 C43.33787229 901.48298135 62.89636302 899.86443759 82.5390625 896.890625 C83.25615387 896.78396515 83.97324524 896.6773053 84.71206665 896.56741333 C97.11917009 894.71255008 109.32013648 892.32198251 121.4765625 889.203125 C122.17185059 889.0292627 122.86713867 888.85540039 123.58349609 888.67626953 C150.79412547 881.86197803 177.06236557 872.01165469 202.4765625 860.203125 C203.33523926 859.80544922 204.19391602 859.40777344 205.07861328 858.99804688 C233.87744111 845.50876037 260.5566516 827.86519394 285.4765625 808.203125 C286.49363281 807.40132812 287.51070312 806.59953125 288.55859375 805.7734375 C294.4116424 801.06755289 299.96445753 796.09272208 305.45703125 790.9765625 C307.67482161 788.91571771 309.94675188 786.93088272 312.2421875 784.95703125 C317.04940613 780.76702872 321.54228435 776.28393601 326.0390625 771.765625 C326.85052734 770.95802734 327.66199219 770.15042969 328.49804688 769.31835938 C333.36590871 764.44263981 338.00404866 759.44227423 342.4765625 754.203125 C343.3221875 753.23890625 344.1678125 752.2746875 345.0390625 751.28125 C364.36035429 728.86359734 381.29804857 704.17126933 395.4765625 678.203125 C396.19489258 676.89190674 396.19489258 676.89190674 396.92773438 675.55419922 C419.64696516 633.78656266 435.86315281 588.1858769 443.4765625 541.203125 C443.647323 540.16983063 443.647323 540.16983063 443.8215332 539.11566162 C447.54275209 516.45741744 448.94065869 494.10174967 448.9140625 471.140625 C448.91419342 469.9740033 448.91432434 468.80738159 448.91445923 467.60540771 C448.87247451 446.8106905 447.57338113 426.17483005 444.6640625 405.578125 C444.49302002 404.36141113 444.32197754 403.14469727 444.14575195 401.89111328 C442.67077718 391.81046472 440.68430091 381.93573839 438.19482422 372.05957031 C437.41631859 368.96354179 436.66779822 365.86090349 435.91796875 362.7578125 C421.42673095 303.82507343 393.39960805 248.52207012 355.4765625 201.203125 C354.68121094 200.19636719 353.88585937 199.18960938 353.06640625 198.15234375 C348.35995363 192.28380407 343.37450358 186.72418788 338.25 181.22265625 C336.17937538 178.9941122 334.18383965 176.71160618 332.19921875 174.40625 C328.17325286 169.78723173 323.88122957 165.46080641 319.5390625 161.140625 C318.39920898 159.9949707 318.39920898 159.9949707 317.23632812 158.82617188 C312.47925938 154.07722793 307.57783292 149.57766494 302.4765625 145.203125 C301.42834687 144.27755773 300.38139471 143.35055686 299.3359375 142.421875 C276.84557869 122.65346331 251.74166326 105.54377608 225.4765625 91.203125 C224.60241699 90.72423828 223.72827148 90.24535156 222.82763672 89.75195312 C176.94657301 64.79525074 127.3448367 48.59356203 75.6640625 41.515625 C74.87659637 41.40685028 74.08913025 41.29807556 73.27780151 41.18600464 C54.84661072 38.66020706 36.69151228 37.99707815 18.1015625 38.015625 C16.98584869 38.01622925 15.87013489 38.0168335 14.72061157 38.01745605 C-1.12670402 38.04079001 -16.77753099 38.26586421 -32.5234375 40.203125 Z " fill="#F46464" transform="translate(481.5234375,29.796875)"/>
<path d="M0 0 C0.74765625 0.05929688 1.4953125 0.11859375 2.265625 0.1796875 C9.38842332 1.20078796 13.6938374 5.43989757 19 10 C39.33186006 26.13598575 61.1646171 40.58066434 85 51 C85 51.66 85 52.32 85 53 C85.70125 53.12375 86.4025 53.2475 87.125 53.375 C90.17656387 54.03838345 93.05340938 54.97211955 96 56 C96 56.66 96 57.32 96 58 C97.07701172 58.19142578 97.07701172 58.19142578 98.17578125 58.38671875 C100.96887136 58.99324039 103.50937016 59.81957446 106.1875 60.8125 C107.63382813 61.34617187 107.63382813 61.34617187 109.109375 61.890625 C111.74154837 62.90081045 114.33777843 63.97229418 116.9375 65.0625 C122.47294344 67.31768066 128.18136192 68.68030889 134 70 C134 70.66 134 71.32 134 72 C135.485 72.185625 135.485 72.185625 137 72.375 C140.28359655 72.84595409 143.45656667 73.5724966 146.66943359 74.40429688 C156.28730801 76.8626683 165.98868848 78.83413651 175.75 80.625 C176.90371094 80.8415625 178.05742188 81.058125 179.24609375 81.28125 C190.01410205 83.27032337 200.41867618 84.21087352 211.359375 84.4296875 C221.56311475 84.78666965 230.22851691 88.97059891 237.3125 96.4375 C238.1478125 97.7059375 238.1478125 97.7059375 239 99 C240.02794678 100.55340088 240.02794678 100.55340088 241.07666016 102.13818359 C243.39342286 106.24039276 243.55002219 109.71620688 243.4609375 114.3515625 C243.46071846 115.55246017 243.46071846 115.55246017 243.460495 116.77761841 C243.45315973 119.39402915 243.41524991 122.00890437 243.375 124.625 C243.36056191 126.44563272 243.34681759 128.26627106 243.33374023 130.08691406 C242.89077746 174.8932256 242.89077746 174.8932256 240.50927734 186.36352539 C239.74440004 190.32321378 239.56929066 194.30351882 239.31640625 198.32421875 C239.19223891 200.17644448 239.06788395 202.02865763 238.94335938 203.88085938 C238.75223433 206.779059 238.5631488 209.67736009 238.37768555 212.57592773 C238.19640638 215.38827595 238.00686978 218.19997959 237.81640625 221.01171875 C237.76424454 221.86311935 237.71208282 222.71451996 237.65834045 223.59172058 C237.30510481 228.72651852 236.54727401 233.62677959 235.47688293 238.65986633 C234.8131963 241.91667281 234.41504616 245.18356858 234.03515625 248.484375 C233.87317806 249.84636977 233.71106437 251.20834844 233.54882812 252.5703125 C233.30534262 254.65370997 233.06395166 256.73731628 232.82543945 258.82128906 C231.85151418 267.27331885 230.56099889 275.54181829 228.68481445 283.8515625 C227.76391202 288.08541553 227.1548459 292.33561474 226.5625 296.625 C225.61376433 303.05781244 224.24138927 308.94642524 221.984375 315.06640625 C220.13496627 320.57793781 219.11266772 326.30179258 218 332 C217.34 332 216.68 332 216 332 C215.896875 333.11375 215.79375 334.2275 215.6875 335.375 C214.78839496 342.54251339 212.34671107 349.29182973 209.75 356 C208.93640417 358.16958889 208.21481274 360.35849406 207.5 362.5625 C206.21217412 366.47963704 204.64977911 370.21925621 203 374 C202.319375 375.85625 202.319375 375.85625 201.625 377.75 C187.9715704 414.48757861 164.4108109 448.35335325 138 477 C137.19691406 477.90621094 136.39382813 478.81242187 135.56640625 479.74609375 C124.72096509 491.8807404 112.80192678 502.95334355 100 513 C98.7572595 514.00713052 97.51511821 515.01500068 96.2734375 516.0234375 C72.97813633 534.74395085 47.21463709 550.71671867 21 565 C19.56333984 565.79083984 19.56333984 565.79083984 18.09765625 566.59765625 C13.36397186 569.09943398 8.99863206 570.71201546 3.71484375 571.640625 C1.97579556 571.84185878 1.97579556 571.84185878 1 573 C-1.69654854 573.07319621 -4.36691458 573.09242537 -7.0625 573.0625 C-7.82111328 573.05798828 -8.57972656 573.05347656 -9.36132812 573.04882812 C-11.24091871 573.0370068 -13.12046899 573.01907078 -15 573 C-15 572.34 -15 571.68 -15 571 C-15.556875 570.89042969 -16.11375 570.78085937 -16.6875 570.66796875 C-24.40603939 569.06428573 -30.90883161 566.88239325 -37.515625 562.5546875 C-40.04583843 560.97131494 -42.63594715 559.52893541 -45.25341797 558.09570312 C-59.38530003 550.34027555 -72.95595682 541.46778411 -86 532 C-86.80800049 531.41750488 -86.80800049 531.41750488 -87.63232422 530.82324219 C-92.1169601 527.58710754 -96.57030987 524.31093267 -101 521 C-101.59361328 520.55640137 -102.18722656 520.11280273 -102.79882812 519.65576172 C-111.881513 512.81837744 -120.17116032 505.32660277 -128.40527344 497.49755859 C-130.39179033 495.63208176 -132.43304881 493.8381627 -134.5 492.0625 C-140.17468162 487.15996728 -145.25664788 481.8163788 -150.140625 476.1328125 C-151.39837046 474.69010448 -152.6806258 473.26846124 -153.984375 471.8671875 C-165.33583207 459.64572824 -175.03517295 446.03684489 -184 432 C-184.44537109 431.30390625 -184.89074219 430.6078125 -185.34960938 429.890625 C-186.71858236 427.74351928 -188.08016525 425.59197986 -189.4375 423.4375 C-189.85088623 422.78257568 -190.26427246 422.12765137 -190.69018555 421.45288086 C-197 411.33134885 -197 411.33134885 -197 408 C-197.66 408 -198.32 408 -199 408 C-201.3399861 403.00308444 -203.67314753 398.00304471 -206 393 C-206.72896484 391.43378906 -206.72896484 391.43378906 -207.47265625 389.8359375 C-209.59344244 385.23117238 -211.55173412 380.64037308 -213.2578125 375.8671875 C-214.01771675 373.95542838 -214.94163096 372.23624021 -215.9375 370.4375 C-218.52025281 365.46915108 -219.66177811 360.09026283 -220.97265625 354.68359375 C-221.71516712 352.02128291 -222.4664558 349.79966389 -223.578125 347.3125 C-225.27464435 343.36016921 -225.62751424 340.24633769 -226 336 C-226.66 336 -227.32 336 -228 336 C-228.13575439 335.37544922 -228.27150879 334.75089844 -228.41137695 334.10742188 C-229.03897039 331.23690566 -229.6756682 328.3684802 -230.3125 325.5 C-230.52583984 324.51773437 -230.73917969 323.53546875 -230.95898438 322.5234375 C-231.91433231 318.24576017 -232.86048086 314.12458948 -234.54296875 310.0703125 C-236.67318339 304.7142659 -237.21868712 299.05281296 -238 293.375 C-239.51554165 282.88262775 -239.51554165 282.88262775 -241.625 272.5 C-242.83379092 267.20906271 -243.58492296 261.94973486 -244.1875 256.5625 C-244.2714502 255.81613281 -244.35540039 255.06976563 -244.44189453 254.30078125 C-244.906009 249.84207461 -245.07677162 245.48228176 -245 241 C-245.66 241 -246.32 241 -247 241 C-250.10870944 210.90430028 -250.10870944 210.90430028 -250.65600586 196.17016602 C-250.92809463 189.34623404 -251.6296916 182.63146226 -252.5 175.859375 C-254.11865319 161.38605124 -254.15903195 146.8649629 -254.13037109 132.31958008 C-254.1249229 129.01574293 -254.13039562 125.71203663 -254.13671875 122.40820312 C-254.13605938 120.3046872 -254.13478116 118.20117136 -254.1328125 116.09765625 C-254.13483673 115.11136734 -254.13686096 114.12507843 -254.13894653 113.10890198 C-254.13579437 112.2029277 -254.13264221 111.29695343 -254.12939453 110.36352539 C-254.12859894 109.56652725 -254.12780334 108.76952911 -254.12698364 107.94837952 C-254 106 -254 106 -253 104 C-252.34 104 -251.68 104 -251 104 C-250.90074219 103.25878906 -250.80148438 102.51757812 -250.69921875 101.75390625 C-249.26162086 96.0918587 -244.45197109 92.14947712 -240 88.625 C-232.22540197 84.4137594 -224.17642272 84.46912535 -215.5 84 C-202.11855854 83.20160137 -189.22944451 82.13307897 -176.20214844 78.8137207 C-173.12789783 78.03250103 -170.04823359 77.27937946 -166.96484375 76.53515625 C-165.97033203 76.29216797 -164.97582031 76.04917969 -163.95117188 75.79882812 C-161.93926651 75.30726084 -159.92623216 74.82029189 -157.91210938 74.33789062 C-151.93536964 72.8679462 -146.2015115 71.09761264 -140.45043945 68.90161133 C-138.07161877 68.02635131 -135.69151802 67.30276562 -133.25 66.625 C-122.71874193 63.52561076 -112.7752116 59.04561353 -103.03515625 54.02734375 C-99.97203346 52.46321264 -96.87115044 51.00269501 -93.74609375 49.56640625 C-71.71671835 39.40015991 -50.70706742 26.80283111 -32.14477539 11.09301758 C-22.53065645 3.01002234 -12.8450024 -1.33622508 0 0 Z M-19.578125 64.30078125 C-23.29862873 67.30200223 -27.23374407 69.91353665 -31.25 72.5 C-31.96019287 72.95777832 -32.67038574 73.41555664 -33.40209961 73.88720703 C-40.7596483 78.56950901 -48.3448821 82.82729105 -56 87 C-56 87.66 -56 88.32 -56 89 C-56.73863281 89.11859375 -57.47726562 89.2371875 -58.23828125 89.359375 C-60.96694412 89.99233216 -62.79328946 90.83054309 -65.1875 92.25 C-76.02038375 98.44783021 -87.17003719 103.05667906 -99 107 C-99 107.66 -99 108.32 -99 109 C-99.75023437 109.17015625 -100.50046875 109.3403125 -101.2734375 109.515625 C-107.31554967 110.94625106 -112.94724523 112.66764726 -118.6640625 115.08203125 C-122.04907288 116.41226108 -125.45305802 117.21179067 -129 118 C-129 118.66 -129 119.32 -129 120 C-129.99902344 120.12632812 -130.99804688 120.25265625 -132.02734375 120.3828125 C-135.94359752 120.94326057 -139.73918606 121.87222559 -143.5625 122.875 C-156.75673028 126.22380475 -169.82037236 128.67003494 -183.31958008 130.46679688 C-194.44859334 131.99353743 -194.44859334 131.99353743 -204.54296875 136.63671875 C-206.75680907 140.22753214 -206.45877464 143.73460033 -206.3125 147.8125 C-206.29558105 148.68543701 -206.27866211 149.55837402 -206.26123047 150.45776367 C-206.19725216 153.30630989 -206.10040408 156.15252129 -206 159 C-205.97244629 159.97195313 -205.94489258 160.94390625 -205.91650391 161.9453125 C-205.83216308 164.90162896 -205.73245253 167.85693781 -205.625 170.8125 C-205.59446533 171.70493408 -205.56393066 172.59736816 -205.5324707 173.5168457 C-205.30286652 178.73335803 -204.77735982 183.83018407 -204.0390625 189 C-203.24001943 194.72310082 -202.70694896 200.40068575 -202.359375 206.16796875 C-202.31069275 206.96882401 -202.2620105 207.76967926 -202.21185303 208.59480286 C-202.11092922 210.26346802 -202.01018406 211.93214399 -201.90960693 213.60083008 C-200.7212053 232.86066227 -198.09848074 251.59415587 -194.58886719 270.5546875 C-194.08889278 273.47991088 -193.71711305 276.3594879 -193.4453125 279.3125 C-193.27134043 283.08151121 -193.27134043 283.08151121 -191 286 C-190.53913365 287.79940553 -190.15366654 289.61869991 -189.81640625 291.4453125 C-189.61080078 292.52296875 -189.40519531 293.600625 -189.19335938 294.7109375 C-188.98517578 295.83757812 -188.77699219 296.96421875 -188.5625 298.125 C-187.3112305 304.88264475 -186.02038042 311.42602556 -183.71606445 317.90917969 C-182.51998202 321.4015936 -181.67631054 324.97617377 -180.8125 328.5625 C-180.63525391 329.28501953 -180.45800781 330.00753906 -180.27539062 330.75195312 C-179.84694071 332.50049198 -179.42297503 334.25012869 -179 336 C-178.34 336 -177.68 336 -177 336 C-176.90203125 336.70125 -176.8040625 337.4025 -176.703125 338.125 C-175.84138628 343.59258361 -174.7429373 348.0745783 -172.06640625 352.9140625 C-170.82530835 355.34170454 -169.95369787 357.79882478 -169.0625 360.375 C-167.46190397 364.90793797 -165.56702378 369.13588628 -163.34570312 373.39624023 C-162.10383723 375.79908853 -160.90788126 378.21919779 -159.71875 380.6484375 C-147.66810209 404.76533431 -132.09425543 426.3910379 -113.734375 446.046875 C-111.61841676 448.31786953 -109.56419196 450.62686005 -107.5625 453 C-99.18812627 462.80414486 -89.01300432 470.94075262 -79 479 C-78.15308594 479.69222656 -77.30617188 480.38445312 -76.43359375 481.09765625 C-71.66596708 484.96995397 -66.80964497 488.61798941 -61.74609375 492.09375 C-59.15957902 493.88922537 -56.61599882 495.73659125 -54.07397461 497.59423828 C-46.96123104 502.765888 -39.6315237 507.39051003 -32.03417969 511.81298828 C-29.82171788 513.10403356 -27.61745982 514.40839239 -25.4140625 515.71484375 C-23.88036073 516.62265335 -22.34650952 517.53021054 -20.8125 518.4375 C-20.09344482 518.86289062 -19.37438965 519.28828125 -18.63354492 519.7265625 C-17.61804565 520.32404297 -17.61804565 520.32404297 -16.58203125 520.93359375 C-15.98624268 521.28478271 -15.3904541 521.63597168 -14.77661133 521.99780273 C-10.15431158 524.60527016 -6.3962616 526.081183 -1 525 C1.30792604 523.79045109 3.31149193 522.36347263 5.4140625 520.82421875 C8.34061024 518.75972057 11.36853897 517.05021007 14.5 515.3125 C42.8746433 499.35490707 70.36595506 479.45876723 93 456 C95.43440714 453.55003754 97.88050763 451.11593134 100.359375 448.7109375 C106.39397186 442.81438697 111.78840155 436.62886619 117 430 C117.77988281 429.03707031 118.55976562 428.07414062 119.36328125 427.08203125 C126.68413851 417.86966063 132.90098325 408.05237426 139 398 C139.50273438 397.17564453 140.00546875 396.35128906 140.5234375 395.50195312 C150.42489271 380.6916448 150.42489271 380.6916448 155 364 C155.66 364 156.32 364 157 364 C157.31453125 363.03320312 157.6290625 362.06640625 157.953125 361.0703125 C160.18633651 354.26116388 162.46563498 347.5423187 165.30078125 340.953125 C166.168526 338.87500915 166.168526 338.87500915 166 336 C166.66 336 167.32 336 168 336 C168.16604736 335.35562988 168.33209473 334.71125977 168.50317383 334.04736328 C169.27093579 331.07271842 170.04170186 328.0988595 170.8125 325.125 C171.07353516 324.11179687 171.33457031 323.09859375 171.60351562 322.0546875 C172.83925147 317.2948161 174.1098227 312.55884125 175.546875 307.85546875 C180.12987909 292.78394531 182.7064021 277.42131673 184.65600586 261.8112793 C185.38996763 256.00217718 186.34739095 250.62561612 188 245 C188.50387295 241.78197892 188.82466252 238.55515804 189.125 235.3125 C189.20991699 234.43561523 189.29483398 233.55873047 189.38232422 232.65527344 C189.98291797 226.09345438 190.24108828 219.58974627 190 213 C190.66 213 191.32 213 192 213 C193.3200624 196.01788723 194.44716436 179.0554736 194.90771484 162.02587891 C194.99846192 159.05043109 195.13202648 156.07907197 195.26953125 153.10546875 C195.32755168 151.29954327 195.38365281 149.49355473 195.4375 147.6875 C195.48406738 146.87539063 195.53063477 146.06328125 195.57861328 145.2265625 C195.65753771 140.99548721 195.25352192 139.28564235 192.41015625 136.08203125 C185.98629945 132.16002017 179.1367055 131.46997125 171.8125 130.5 C169.93999655 130.2403583 168.06759974 129.97994623 166.1953125 129.71875 C164.85194824 129.533125 164.85194824 129.533125 163.48144531 129.34375 C149.52771427 127.41076561 149.52771427 127.41076561 142.97265625 124.71875 C139.97077629 123.62499572 136.89975968 123.10988601 133.765625 122.5234375 C124.51913721 120.77339603 115.76441314 118.42533235 107 115 C105.72997305 114.5187001 104.45919155 114.03938433 103.1875 113.5625 C102.25550781 113.20865234 102.25550781 113.20865234 101.3046875 112.84765625 C99.40067979 112.14736867 97.48668368 111.47430356 95.5703125 110.80859375 C94.33023437 110.37675781 93.09015625 109.94492187 91.8125 109.5 C90.64332031 109.0978125 89.47414063 108.695625 88.26953125 108.28125 C85.24688915 107.09674987 82.76645749 105.67385974 80 104 C77.89045732 103.14817201 75.76402491 102.33732494 73.625 101.5625 C68.73111972 99.72729489 64.46706751 97.68024051 60 95 C58.98550781 94.5771875 57.97101563 94.154375 56.92578125 93.71875 C52.12170348 91.6957809 47.61545072 89.15251953 43.0625 86.625 C42.20720703 86.15578125 41.35191406 85.6865625 40.47070312 85.203125 C35.73378994 82.58716379 31.11353294 79.86968645 26.59155273 76.89599609 C25.01393826 75.83647594 25.01393826 75.83647594 23 76 C23 75.34 23 74.68 23 74 C21.18904632 72.71329028 21.18904632 72.71329028 18.8125 71.4375 C13.78086183 68.5293715 9.03799465 65.32821131 4.29223633 61.98413086 C-0.02343739 58.94878024 -2.87871329 57.3321959 -8.3359375 57.41015625 C-12.91744425 58.42453678 -15.98700345 61.39780608 -19.578125 64.30078125 Z " fill="#1D222E" transform="translate(506,214)"/>
<path d="M0 0 C0.74765625 0.05929688 1.4953125 0.11859375 2.265625 0.1796875 C9.38842332 1.20078796 13.6938374 5.43989757 19 10 C39.33186006 26.13598575 61.1646171 40.58066434 85 51 C85 51.66 85 52.32 85 53 C85.70125 53.12375 86.4025 53.2475 87.125 53.375 C90.17656387 54.03838345 93.05340938 54.97211955 96 56 C96 56.66 96 57.32 96 58 C97.07701172 58.19142578 97.07701172 58.19142578 98.17578125 58.38671875 C100.96887136 58.99324039 103.50937016 59.81957446 106.1875 60.8125 C107.63382813 61.34617187 107.63382813 61.34617187 109.109375 61.890625 C111.74154837 62.90081045 114.33777843 63.97229418 116.9375 65.0625 C122.47294344 67.31768066 128.18136192 68.68030889 134 70 C134 70.66 134 71.32 134 72 C135.485 72.185625 135.485 72.185625 137 72.375 C140.28359655 72.84595409 143.45656667 73.5724966 146.66943359 74.40429688 C156.28730801 76.8626683 165.98868848 78.83413651 175.75 80.625 C176.90371094 80.8415625 178.05742188 81.058125 179.24609375 81.28125 C190.01410205 83.27032337 200.41867618 84.21087352 211.359375 84.4296875 C221.56311475 84.78666965 230.22851691 88.97059891 237.3125 96.4375 C238.1478125 97.7059375 238.1478125 97.7059375 239 99 C240.02794678 100.55340088 240.02794678 100.55340088 241.07666016 102.13818359 C243.39342286 106.24039276 243.55002219 109.71620688 243.4609375 114.3515625 C243.46071846 115.55246017 243.46071846 115.55246017 243.460495 116.77761841 C243.45315973 119.39402915 243.41524991 122.00890437 243.375 124.625 C243.36056191 126.44563272 243.34681759 128.26627106 243.33374023 130.08691406 C242.89077746 174.8932256 242.89077746 174.8932256 240.50927734 186.36352539 C239.74440004 190.32321378 239.56929066 194.30351882 239.31640625 198.32421875 C239.19223891 200.17644448 239.06788395 202.02865763 238.94335938 203.88085938 C238.75223433 206.779059 238.5631488 209.67736009 238.37768555 212.57592773 C238.19640638 215.38827595 238.00686978 218.19997959 237.81640625 221.01171875 C237.76424454 221.86311935 237.71208282 222.71451996 237.65834045 223.59172058 C237.30510481 228.72651852 236.54727401 233.62677959 235.47688293 238.65986633 C234.8131963 241.91667281 234.41504616 245.18356858 234.03515625 248.484375 C233.87317806 249.84636977 233.71106437 251.20834844 233.54882812 252.5703125 C233.30534262 254.65370997 233.06395166 256.73731628 232.82543945 258.82128906 C231.85151418 267.27331885 230.56099889 275.54181829 228.68481445 283.8515625 C227.76391202 288.08541553 227.1548459 292.33561474 226.5625 296.625 C225.61376433 303.05781244 224.24138927 308.94642524 221.984375 315.06640625 C220.13496627 320.57793781 219.11266772 326.30179258 218 332 C217.34 332 216.68 332 216 332 C215.896875 333.11375 215.79375 334.2275 215.6875 335.375 C214.78839496 342.54251339 212.34671107 349.29182973 209.75 356 C208.93640417 358.16958889 208.21481274 360.35849406 207.5 362.5625 C206.21217412 366.47963704 204.64977911 370.21925621 203 374 C202.319375 375.85625 202.319375 375.85625 201.625 377.75 C187.9715704 414.48757861 164.4108109 448.35335325 138 477 C137.19691406 477.90621094 136.39382813 478.81242187 135.56640625 479.74609375 C124.72096509 491.8807404 112.80192678 502.95334355 100 513 C98.7572595 514.00713052 97.51511821 515.01500068 96.2734375 516.0234375 C72.97813633 534.74395085 47.21463709 550.71671867 21 565 C19.56333984 565.79083984 19.56333984 565.79083984 18.09765625 566.59765625 C13.36397186 569.09943398 8.99863206 570.71201546 3.71484375 571.640625 C1.97579556 571.84185878 1.97579556 571.84185878 1 573 C-1.69654854 573.07319621 -4.36691458 573.09242537 -7.0625 573.0625 C-7.82111328 573.05798828 -8.57972656 573.05347656 -9.36132812 573.04882812 C-11.24091871 573.0370068 -13.12046899 573.01907078 -15 573 C-15 572.34 -15 571.68 -15 571 C-15.556875 570.89042969 -16.11375 570.78085937 -16.6875 570.66796875 C-24.40603939 569.06428573 -30.90883161 566.88239325 -37.515625 562.5546875 C-40.04583843 560.97131494 -42.63594715 559.52893541 -45.25341797 558.09570312 C-59.38530003 550.34027555 -72.95595682 541.46778411 -86 532 C-86.80800049 531.41750488 -86.80800049 531.41750488 -87.63232422 530.82324219 C-92.1169601 527.58710754 -96.57030987 524.31093267 -101 521 C-101.59361328 520.55640137 -102.18722656 520.11280273 -102.79882812 519.65576172 C-111.881513 512.81837744 -120.17116032 505.32660277 -128.40527344 497.49755859 C-130.39179033 495.63208176 -132.43304881 493.8381627 -134.5 492.0625 C-140.17468162 487.15996728 -145.25664788 481.8163788 -150.140625 476.1328125 C-151.39837046 474.69010448 -152.6806258 473.26846124 -153.984375 471.8671875 C-165.33583207 459.64572824 -175.03517295 446.03684489 -184 432 C-184.44537109 431.30390625 -184.89074219 430.6078125 -185.34960938 429.890625 C-186.71858236 427.74351928 -188.08016525 425.59197986 -189.4375 423.4375 C-189.85088623 422.78257568 -190.26427246 422.12765137 -190.69018555 421.45288086 C-197 411.33134885 -197 411.33134885 -197 408 C-197.66 408 -198.32 408 -199 408 C-201.3399861 403.00308444 -203.67314753 398.00304471 -206 393 C-206.72896484 391.43378906 -206.72896484 391.43378906 -207.47265625 389.8359375 C-209.59344244 385.23117238 -211.55173412 380.64037308 -213.2578125 375.8671875 C-214.01771675 373.95542838 -214.94163096 372.23624021 -215.9375 370.4375 C-218.52025281 365.46915108 -219.66177811 360.09026283 -220.97265625 354.68359375 C-221.71516712 352.02128291 -222.4664558 349.79966389 -223.578125 347.3125 C-225.27464435 343.36016921 -225.62751424 340.24633769 -226 336 C-226.66 336 -227.32 336 -228 336 C-228.13575439 335.37544922 -228.27150879 334.75089844 -228.41137695 334.10742188 C-229.03897039 331.23690566 -229.6756682 328.3684802 -230.3125 325.5 C-230.52583984 324.51773437 -230.73917969 323.53546875 -230.95898438 322.5234375 C-231.91433231 318.24576017 -232.86048086 314.12458948 -234.54296875 310.0703125 C-236.67318339 304.7142659 -237.21868712 299.05281296 -238 293.375 C-239.51554165 282.88262775 -239.51554165 282.88262775 -241.625 272.5 C-242.83379092 267.20906271 -243.58492296 261.94973486 -244.1875 256.5625 C-244.2714502 255.81613281 -244.35540039 255.06976563 -244.44189453 254.30078125 C-244.906009 249.84207461 -245.07677162 245.48228176 -245 241 C-245.66 241 -246.32 241 -247 241 C-250.10870944 210.90430028 -250.10870944 210.90430028 -250.65600586 196.17016602 C-250.92809463 189.34623404 -251.6296916 182.63146226 -252.5 175.859375 C-254.11865319 161.38605124 -254.15903195 146.8649629 -254.13037109 132.31958008 C-254.1249229 129.01574293 -254.13039562 125.71203663 -254.13671875 122.40820312 C-254.13605938 120.3046872 -254.13478116 118.20117136 -254.1328125 116.09765625 C-254.13483673 115.11136734 -254.13686096 114.12507843 -254.13894653 113.10890198 C-254.13579437 112.2029277 -254.13264221 111.29695343 -254.12939453 110.36352539 C-254.12859894 109.56652725 -254.12780334 108.76952911 -254.12698364 107.94837952 C-254 106 -254 106 -253 104 C-252.34 104 -251.68 104 -251 104 C-250.90074219 103.25878906 -250.80148438 102.51757812 -250.69921875 101.75390625 C-249.26162086 96.0918587 -244.45197109 92.14947712 -240 88.625 C-232.22540197 84.4137594 -224.17642272 84.46912535 -215.5 84 C-202.11855854 83.20160137 -189.22944451 82.13307897 -176.20214844 78.8137207 C-173.12789783 78.03250103 -170.04823359 77.27937946 -166.96484375 76.53515625 C-165.97033203 76.29216797 -164.97582031 76.04917969 -163.95117188 75.79882812 C-161.93926651 75.30726084 -159.92623216 74.82029189 -157.91210938 74.33789062 C-151.93536964 72.8679462 -146.2015115 71.09761264 -140.45043945 68.90161133 C-138.07161877 68.02635131 -135.69151802 67.30276562 -133.25 66.625 C-122.71874193 63.52561076 -112.7752116 59.04561353 -103.03515625 54.02734375 C-99.97203346 52.46321264 -96.87115044 51.00269501 -93.74609375 49.56640625 C-71.71671835 39.40015991 -50.70706742 26.80283111 -32.14477539 11.09301758 C-22.53065645 3.01002234 -12.8450024 -1.33622508 0 0 Z M-22.08935547 27.40820312 C-25.64221639 30.36816392 -29.34845297 33.12180285 -33.0625 35.875 C-34.25830688 36.76179443 -34.25830688 36.76179443 -35.47827148 37.66650391 C-43.53803869 43.54750152 -52.01380765 48.64670752 -60.65039062 53.62719727 C-63.08268784 55.0483119 -65.47887712 56.521254 -67.87890625 57.99609375 C-73.21643964 61.20576019 -78.74304519 63.91214069 -84.375 66.5625 C-85.38651123 67.04211182 -86.39802246 67.52172363 -87.44018555 68.01586914 C-94.22137666 71.21238101 -101.02414135 74.25127077 -108 77 C-108.85207031 77.35449219 -109.70414062 77.70898438 -110.58203125 78.07421875 C-115.55680103 80.12984559 -120.5335403 81.79598369 -125.703125 83.2890625 C-128.91272813 84.28251109 -131.92466253 85.65116777 -135 87 C-140.96127739 89.34810621 -146.8032921 91.30490336 -153.0859375 92.5703125 C-155.13430063 92.97687029 -155.13430063 92.97687029 -157.5 94 C-165.8545364 97.34181456 -175.15525408 97.87032453 -184 99 C-186.60565788 99.34451323 -189.20899406 99.70164445 -191.8125 100.0625 C-192.95332031 100.21847656 -194.09414063 100.37445313 -195.26953125 100.53515625 C-197.9545014 100.85610069 -197.9545014 100.85610069 -200 102 C-202.03338566 102.16387604 -204.07115584 102.27466827 -206.109375 102.359375 C-207.33914063 102.42382812 -208.56890625 102.48828125 -209.8359375 102.5546875 C-212.42899084 102.68408138 -215.02281824 102.79885565 -217.6171875 102.8984375 C-219.46957031 103.00285156 -219.46957031 103.00285156 -221.359375 103.109375 C-222.48827148 103.16061523 -223.61716797 103.21185547 -224.78027344 103.26464844 C-229.08595978 104.24802175 -231.06333552 105.70954023 -234 109 C-234.60161543 111.96270944 -234.79824031 114.09122425 -234.7265625 117.046875 C-234.72919098 117.86153229 -234.73181946 118.67618958 -234.73452759 119.51553345 C-234.73130019 122.26166903 -234.680032 125.00444283 -234.625 127.75 C-234.60476065 129.71565365 -234.5849151 131.68131139 -234.56542969 133.64697266 C-234.32143327 150.87566142 -233.39847962 168.08334029 -232.37444305 185.28059387 C-232.25236494 187.33519743 -232.1328784 189.38994088 -232.01348877 191.44470215 C-230.85522111 211.11874919 -228.73576702 230.49285728 -226 250 C-225.70154699 252.16772327 -225.40365931 254.33552447 -225.10644531 256.50341797 C-224.08389835 263.94738578 -222.96976523 271.31450395 -221.45947266 278.67700195 C-220.86802479 281.66723918 -220.4241247 284.66939837 -220 287.6875 C-219.31407511 292.26926391 -218.36430034 296.5660239 -217 301 C-216.68841368 302.37128746 -216.38860138 303.74527899 -216.09765625 305.12109375 C-215.04975426 309.90414964 -213.774488 314.60328708 -212.4375 319.3125 C-211.9982598 320.87097034 -211.55944272 322.42956 -211.12109375 323.98828125 C-210.9295874 324.66415283 -210.73808105 325.34002441 -210.54077148 326.03637695 C-209.99528214 328.01713125 -209.49034033 330.00494693 -209 332 C-208.34 332 -207.68 332 -207 332 C-206.91363281 332.91007812 -206.82726562 333.82015625 -206.73828125 334.7578125 C-205.93871495 340.32817109 -203.99135699 345.56491645 -202.1875 350.875 C-201.84396484 351.91269531 -201.50042969 352.95039062 -201.14648438 354.01953125 C-199.31104201 359.48109145 -197.33017531 364.78678497 -194.89868164 370.01196289 C-193.42262965 373.27724171 -192.2242149 376.63340901 -191 380 C-190.34 380 -189.68 380 -189 380 C-188.88986572 380.7115625 -188.77973145 381.423125 -188.66625977 382.15625 C-187.93870432 385.26162406 -186.81154033 387.67263372 -185.33984375 390.5 C-184.7977124 391.54542969 -184.25558105 392.59085938 -183.69702148 393.66796875 C-183.11637939 394.76753906 -182.5357373 395.86710937 -181.9375 397 C-181.04623413 398.69576172 -181.04623413 398.69576172 -180.13696289 400.42578125 C-167.34686096 424.58157349 -151.31163845 446.34991524 -132.58203125 466.23046875 C-130.55997641 468.39935965 -128.63220436 470.58692947 -126.75 472.875 C-124.13013879 475.99278805 -121.15863604 478.56017943 -118.05859375 481.19140625 C-115.99675493 483.00285098 -114.09623288 484.90381369 -112.1875 486.875 C-107.44905594 491.65918194 -102.29211794 495.84810419 -97 500 C-96.39542969 500.47566406 -95.79085937 500.95132812 -95.16796875 501.44140625 C-79.21540186 513.94131337 -62.76463548 525.49154986 -45.4375 536 C-44.84867035 536.35735229 -44.2598407 536.71470459 -43.65316772 537.08288574 C-31.52913074 545.70134983 -31.52913074 545.70134983 -18 550 C-18 550.66 -18 551.32 -18 552 C-13.53665816 553.72293135 -9.89798769 554.22240791 -5.125 554.125 C-3.39636719 554.09792969 -3.39636719 554.09792969 -1.6328125 554.0703125 C-0.76398438 554.04710937 0.10484375 554.02390625 1 554 C1 553.34 1 552.68 1 552 C2.19302734 551.9071875 2.19302734 551.9071875 3.41015625 551.8125 C8.2769567 550.7109826 12.12490586 548.4560569 16.4375 546 C17.31986328 545.5052417 18.20222656 545.0104834 19.11132812 544.50073242 C31.04154336 537.77648819 42.69525262 530.74032175 54 523 C55.05960938 522.27941406 56.11921875 521.55882812 57.2109375 520.81640625 C68.5537527 513.04347945 79.44695943 504.8133704 90 496 C90.98742187 495.19949219 91.97484375 494.39898438 92.9921875 493.57421875 C101.02617545 486.9699979 108.44664499 479.76767859 115.8125 472.4375 C116.30036987 471.95480652 116.78823975 471.47211304 117.29089355 470.97479248 C123.99013347 464.3316568 130.14540707 457.40089467 136 450 C136.95297481 448.830846 137.90716778 447.66268241 138.86328125 446.49609375 C164.67169442 415.74960269 164.67169442 415.74960269 178 380 C178.66 380 179.32 380 180 380 C180.24234375 379.31035156 180.4846875 378.62070312 180.734375 377.91015625 C182.34228435 373.40182579 183.96569608 368.96000479 186 364.625 C188.15657306 359.91436787 189.58761694 355.04350214 191.0546875 350.08203125 C191.83552851 347.53623142 192.69962345 345.09469137 193.6875 342.625 C195.01842009 338.94912547 195.59776969 335.86141098 196 332 C196.66 332 197.32 332 198 332 C198.33773438 330.77023437 198.67546875 329.54046875 199.0234375 328.2734375 C199.47387489 326.64060198 199.92440038 325.00779076 200.375 323.375 C200.59671875 322.56675781 200.8184375 321.75851562 201.046875 320.92578125 C201.9603549 317.62113336 202.8660804 314.36664879 204.04296875 311.14453125 C205.81865332 305.3101391 206.49283065 299.22389482 207.41210938 293.20507812 C208.20893357 288.17968889 209.12604666 283.30860546 210.52734375 278.4140625 C212.0709227 273.00496878 212.92645509 267.6370267 213.625 262.0625 C213.75052246 261.10827148 213.87604492 260.15404297 214.00537109 259.17089844 C214.78235695 253.13771106 215.42047567 247.11978178 215.7890625 241.046875 C216 239 216 239 217 237 C217.6318681 232.51861693 218.00924834 228.00499467 218.4375 223.5 C218.50314148 222.82248688 218.56878296 222.14497375 218.63641357 221.44692993 C219.85543524 208.78120967 220.68153024 196.10391194 221.35327148 183.3984375 C221.69105759 177.03949414 222.09174518 170.71369392 222.77246094 164.3815918 C223.64066436 155.29433384 223.73276394 146.11990096 224 137 C224.0407666 135.77587402 224.0815332 134.55174805 224.12353516 133.29052734 C224.23621733 129.61037561 224.31086261 125.93128663 224.375 122.25 C224.41310791 121.10217041 224.45121582 119.95434082 224.49047852 118.77172852 C224.62236099 112.34148327 224.62236099 112.34148327 221.6640625 106.796875 C217.89802809 104.25673449 214.91737228 103.83017508 210.4765625 103.53515625 C208.83155762 103.42034912 208.83155762 103.42034912 207.15332031 103.30322266 C205.98897461 103.22378418 204.82462891 103.1443457 203.625 103.0625 C201.2367238 102.88756669 198.84869443 102.70922751 196.4609375 102.52734375 C195.38634277 102.44734131 194.31174805 102.36733887 193.20458984 102.28491211 C187.74582232 101.79958667 182.38618508 100.99560941 177 100 C175.23066193 99.69548997 173.46110883 99.39222818 171.69140625 99.08984375 C169.73159625 98.74839636 167.77196163 98.40594089 165.8125 98.0625 C164.89694336 97.90475098 163.98138672 97.74700195 163.03808594 97.58447266 C157.69658275 96.62354182 152.5953238 95.34187176 147.41772461 93.72045898 C142.8839456 92.36943588 138.24551167 91.48310946 133.61328125 90.5390625 C128.52582351 89.45963668 123.82099443 87.94027962 119 86 C117.93136719 85.58878906 116.86273437 85.17757812 115.76171875 84.75390625 C114.74722656 84.36074219 113.73273438 83.96757812 112.6875 83.5625 C107.63554654 81.60860859 102.55863265 79.75648015 97.4375 77.9921875 C95 77 95 77 92.48828125 75.45703125 C89.98662097 73.99216581 88.0151342 73.36114544 85.1875 72.8125 C84.39730469 72.65394531 83.60710937 72.49539063 82.79296875 72.33203125 C82.20128906 72.22246094 81.60960937 72.11289062 81 72 C81 71.34 81 70.68 81 70 C79.04350603 69.16235732 77.08474444 68.33000941 75.125 67.5 C74.03445313 67.0359375 72.94390625 66.571875 71.8203125 66.09375 C69.19338071 64.87947544 69.19338071 64.87947544 67 65 C67 64.34 67 63.68 67 63 C65.5437455 62.32880451 64.08492133 61.66318193 62.625 61 C61.81289063 60.62875 61.00078125 60.2575 60.1640625 59.875 C58.08001567 58.87504987 58.08001567 58.87504987 56 59 C56 58.34 56 57.68 56 57 C55.30777344 56.68289063 54.61554688 56.36578125 53.90234375 56.0390625 C41.37182469 50.06271481 30.35056473 42.06729317 19.1875 33.875 C18.37144287 33.2773584 17.55538574 32.6797168 16.71459961 32.06396484 C13.36311236 29.58637678 10.05307273 27.12177244 6.95703125 24.328125 C3.03304149 20.80963498 0.03162705 18.45604958 -5.3125 17.875 C-12.33973489 18.46305313 -16.94549179 23.02456498 -22.08935547 27.40820312 Z " fill="#CBC8DC" transform="translate(506,214)"/>
<path d="M0 0 C5.5755253 2.11633619 8.36288243 7.64627706 11.02734375 12.64453125 C11.80519714 14.06553823 12.58389613 15.48608255 13.36328125 16.90625 C13.99508301 18.06519775 13.99508301 18.06519775 14.63964844 19.24755859 C17.2611359 24.01180305 19.9657589 28.72930233 22.65234375 33.45703125 C26.61649524 40.45668717 30.52690717 47.47428757 34.30859375 54.57421875 C36.8174931 59.23849072 39.40436613 63.85859894 41.98510742 68.48339844 C44.85797514 73.64068279 47.68731518 78.81999834 50.4987793 84.01098633 C54.51472112 91.4226151 58.57093858 98.78717058 62.90234375 106.01953125 C67.77070602 114.15625476 72.23227277 122.49850961 76.68359375 130.86914062 C79.56398824 136.26672197 82.48943002 141.61971232 85.58984375 146.89453125 C86.14816895 147.84618164 86.70649414 148.79783203 87.28173828 149.77832031 C88.3338219 151.55789169 89.39671612 153.33113231 90.47216797 155.09667969 C95.13420902 162.98678007 95.13420902 162.98678007 94.02734375 167.76953125 C91.35778071 171.15989125 89.87936733 172.61397942 85.5809164 173.39873695 C84.2354088 173.42608635 82.88917402 173.42617371 81.54356384 173.40444946 C80.79890745 173.41224942 80.05425106 173.42004937 79.28702933 173.42808568 C76.79623432 173.44800151 74.30696796 173.43224414 71.81616211 173.41650391 C70.02882496 173.4232802 68.24149479 173.4321834 66.45417786 173.4430542 C61.60294632 173.46585116 56.75224635 173.45701 51.90100551 173.44115877 C46.82596191 173.42850382 41.75096395 173.44023858 36.67591858 173.4480896 C28.15422386 173.4571865 19.63274581 173.44519627 11.11108398 173.42138672 C1.25486874 173.39416667 -8.60082952 173.40299586 -18.45703226 173.43051875 C-26.91661861 173.45319721 -35.37604919 173.45641634 -43.83565611 173.4433254 C-48.88949177 173.43552507 -53.94308428 173.43450548 -58.99690437 173.45100784 C-63.74705948 173.46543527 -68.49654687 173.45546266 -73.24662971 173.42653656 C-74.99134206 173.41991685 -76.73611047 173.42183852 -78.48080063 173.43284988 C-80.85991607 173.44648275 -83.23688216 173.42942054 -85.61585999 173.40444946 C-86.65549592 173.42117988 -86.65549592 173.42117988 -87.71613461 173.43824828 C-91.37180499 173.36363816 -92.74041454 172.99575103 -95.39998531 170.40514183 C-97.38579212 167.07716437 -97.59535857 165.59938463 -96.97265625 161.76953125 C-95.77039041 158.91708177 -94.24014688 156.30250879 -92.66015625 153.64453125 C-91.74916071 152.06168066 -90.83903921 150.47832679 -89.9296875 148.89453125 C-89.44967285 148.06695313 -88.9696582 147.239375 -88.47509766 146.38671875 C-85.86644526 141.84255987 -83.36224156 137.24119155 -80.84765625 132.64453125 C-79.90782309 130.93344487 -78.96774308 129.22249403 -78.02734375 127.51171875 C-77.34239086 126.26435424 -76.65747141 125.01697137 -75.97265625 123.76953125 C-75.31265625 123.76953125 -74.65265625 123.76953125 -73.97265625 123.76953125 C-73.905625 123.12757813 -73.83859375 122.485625 -73.76953125 121.82421875 C-72.6263805 117.44214086 -70.44487895 113.81962572 -68.22265625 109.89453125 C-67.49163696 108.58427979 -67.49163696 108.58427979 -66.74584961 107.24755859 C-65.16313821 104.41676192 -63.56958824 101.59232787 -61.97265625 98.76953125 C-61.44494629 97.83625 -60.91723633 96.90296875 -60.37353516 95.94140625 C-58.21365556 92.12388333 -56.0527875 88.30692828 -53.88842773 84.49194336 C-49.60536833 76.92894381 -45.42383258 69.3142261 -41.27490234 61.67700195 C-37.87693714 55.42239484 -34.45119144 49.18464881 -30.98071289 42.9699707 C-28.70858178 38.90032741 -26.45115281 34.82329175 -24.21430969 30.7341156 C-22.8851634 28.30601564 -21.55111493 25.88062433 -20.21670532 23.45541382 C-19.24857096 21.69174069 -18.2866731 19.92464867 -17.32495117 18.1574707 C-7.23030316 -0.16264486 -7.23030316 -0.16264486 0 0 Z " fill="#1C222E" transform="translate(501.97265625,385.23046875)"/>
<path d="M0 0 C2.90717073 2.21863029 3.83981643 3.51944929 5 7 C5.11376098 8.97669574 5.16922271 10.95694224 5.19287109 12.93676758 C5.21696548 14.7693084 5.21696548 14.7693084 5.24154663 16.63887024 C5.25303411 17.97408348 5.26364265 19.30930452 5.2734375 20.64453125 C5.27876118 21.31830999 5.28408485 21.99208874 5.28956985 22.68628502 C5.3162694 26.25284053 5.3356542 29.81936144 5.35009766 33.38598633 C5.36343402 36.33194042 5.39128336 39.27720134 5.43212891 42.22290039 C5.4815307 45.78612298 5.50622728 49.34871728 5.51332474 52.91226768 C5.52326963 54.92308885 5.55749356 56.93374278 5.59213257 58.94429016 C5.56856771 69.1237671 5.56856771 69.1237671 2.59228516 72.81518555 C-0.20072057 75.16917013 -1.23612613 75.89815015 -4.8125 76.375 C-9.04029414 75.87761245 -10.32817564 74.20618923 -13 71 C-14.34949374 68.30101251 -14.14206102 66.18282584 -14.16113281 63.16088867 C-14.17074036 61.93589157 -14.1803479 60.71089447 -14.19024658 59.44877625 C-14.19509493 58.10517564 -14.19937367 56.76157287 -14.203125 55.41796875 C-14.20887734 54.04275002 -14.21463507 52.66753131 -14.22039795 51.29231262 C-14.23090877 48.40637844 -14.23675058 45.52047212 -14.24023438 42.63452148 C-14.24571286 38.9423261 -14.26972623 35.25050066 -14.29820633 31.55842113 C-14.31686286 28.71620115 -14.32203995 25.87406963 -14.32357025 23.03179359 C-14.32659161 21.67106419 -14.33460273 20.31033616 -14.34775543 18.94966698 C-14.36487345 17.04228424 -14.36108255 15.13474884 -14.35644531 13.22729492 C-14.36191376 11.60086311 -14.36191376 11.60086311 -14.36749268 9.9415741 C-13.94866352 6.58908008 -12.96807725 4.71920945 -11 2 C-7.58567505 -0.56074371 -4.14459395 -0.44406364 0 0 Z " fill="#CDCADD" transform="translate(505,434)"/>
<path d="M0 0 C3.375 2.0625 3.375 2.0625 6 5 C6.69317444 8.46587218 6.70688161 10.58623678 5.109375 13.78125 C3.9375 15.4375 3.9375 15.4375 1 18 C-2.97640943 18.6390658 -5.17016112 18.38725814 -8.8125 16.6875 C-11 15 -11 15 -13 12 C-13.66812946 5.87547998 -13.66812946 5.87547998 -11.1875 2.625 C-7.55618875 -0.0725455 -4.42664015 -0.52078119 0 0 Z " fill="#C9C6D9" transform="translate(504,520)"/>
</svg>
